<svg width="210" height="184" viewBox="0 0 210 184" fill="none" xmlns="http://www.w3.org/2000/svg">
<g id="Vector">
<path d="M107.71 109.29L100.284 119.881C98.428 122.528 96.6005 125.176 94.7441 127.795C94.5112 128.338 94.1361 128.81 93.6575 129.161C93.179 129.512 92.6146 129.729 92.0227 129.791C91.4309 129.853 90.8332 129.756 90.2916 129.511C89.7501 129.267 89.2843 128.883 88.9428 128.399C84.5918 124.313 80.2601 120.207 75.9478 116.082L74.2654 114.557C73.8013 115.276 73.3372 115.88 72.9311 116.514C68.8122 122.96 64.6836 129.387 60.5453 135.795C58.8339 138.472 57.3836 138.875 54.5699 137.349L44.0695 131.737L33.7432 143.479C31.7417 145.753 30.6394 145.954 27.9418 144.458L18.1666 139.249C14.5698 145.148 11.118 150.904 7.63719 156.516C7.2311 157.178 6.85401 157.869 6.41891 158.502C5.91285 159.31 5.11939 159.901 4.19551 160.156C3.27163 160.412 2.28463 160.315 1.42977 159.883C1.05963 159.615 0.746413 159.278 0.508088 158.889C0.269763 158.501 0.111016 158.07 0.0409506 157.621C-0.029115 157.172 -0.00912105 156.713 0.0997861 156.272C0.208693 155.83 0.404371 155.415 0.675598 155.048C3.57626 150.098 6.47692 145.177 9.37759 140.256L32.5829 101.318C34.8454 97.5196 37.1079 97.4045 39.8346 100.916L46.4481 109.29C46.9702 108.571 47.3763 108.053 47.7534 107.477C58.3698 91.1691 69.0056 74.8612 79.6607 58.5533C80.3108 57.5053 80.6617 56.3016 80.6759 55.0711C80.6759 40.8544 80.6759 26.6665 80.6759 12.4786C80.6759 10.0037 81.4881 8.8813 83.3155 8.6223C85.1429 8.36329 87.0283 9.37054 87.0864 11.5002C87.1444 13.6298 88.0726 13.8312 89.4359 13.6873C91.5894 13.465 93.7228 13.0802 95.8174 12.5362C99.2691 11.5865 102.605 10.2339 106.086 9.4281C107.957 8.99841 109.907 9.03642 111.76 9.53872C113.613 10.041 115.311 10.9919 116.702 12.306C117.616 13.1249 118.185 14.2551 118.297 15.4716C118.443 21.4 118.297 27.3572 118.297 33.2856C118.347 33.9174 118.217 34.5502 117.922 35.1126C117.628 35.6749 117.181 36.1443 116.632 36.4677C116.082 36.791 115.453 36.9555 114.814 36.9424C114.176 36.9293 113.554 36.7393 113.018 36.3937C111.805 35.5024 110.385 34.9296 108.889 34.7284C107.393 34.5271 105.87 34.704 104.461 35.2426C103.478 35.5173 102.509 35.8439 101.561 36.221C96.9486 38.1204 92.3946 40.3076 86.8833 39.0989C86.8833 42.6962 87.1154 46.0346 86.8833 49.3441C86.5116 54.3978 87.7714 59.4377 90.4801 63.7335C99.1821 79.0725 107.304 94.5842 115.687 110.01C116.006 110.614 116.383 111.19 116.876 112.024L125.375 103.131C126.042 102.441 126.709 101.693 127.406 101.002C129.465 98.8722 131.06 98.8147 133.207 101.002L146.695 115.391L148.406 117.204L150.35 113.492L167.087 80.7992C167.841 79.3027 168.682 77.9213 170.596 77.9213C172.511 77.9213 173.497 79.2739 174.135 80.7992C185.873 104.628 197.631 128.466 209.407 152.314C209.87 152.982 210.073 153.794 209.977 154.599C209.881 155.404 209.493 156.147 208.885 156.689C208.343 157.216 207.614 157.511 206.855 157.511C206.095 157.511 205.366 157.216 204.824 156.689C204.163 155.964 203.642 155.125 203.287 154.214C192.864 133.109 182.46 112.005 172.076 90.9005L170.887 88.5407C170.422 89.3465 170.016 89.9221 169.697 90.5552L153.163 122.701C151.075 126.759 148.812 127.104 145.738 123.766C140.662 118.269 135.585 112.715 130.364 107.017C126.999 110.556 123.693 113.981 120.531 117.492C120.183 117.866 120.531 119.017 120.676 119.65C126.671 132.044 132.694 144.429 138.747 156.804C139.102 157.416 139.394 158.062 139.617 158.732C140.002 159.495 140.065 160.379 139.793 161.188C139.521 161.998 138.936 162.667 138.167 163.049C137.398 163.43 136.507 163.493 135.691 163.223C134.875 162.953 134.201 162.373 133.816 161.61C133.324 160.835 132.888 160.028 132.511 159.192L108.957 111.765L107.71 109.29ZM82.8224 64.1076C82.2422 64.9422 81.8071 65.5465 81.401 66.1796L50.1029 114.758C49.6698 115.473 49.1851 116.156 48.6526 116.801C48.3896 117.205 48.0288 117.537 47.6032 117.767C47.1776 117.997 46.7007 118.118 46.216 118.118C45.7314 118.118 45.2544 117.997 44.8288 117.767C44.4032 117.537 44.0424 117.205 43.7795 116.801C43.1413 116.082 42.5902 115.247 41.981 114.47L36.8469 107.707L21.4443 133.608L29.6242 138.155L40.1536 126.845C42.4451 124.399 43.3153 124.255 46.216 125.809L55.9042 130.989L70.4075 108.427C72.409 105.319 73.9464 105.117 76.731 107.736L89.5519 119.909C89.987 120.312 90.4511 120.686 91.0313 121.147C95.1502 115.19 99.1821 109.376 103.127 103.506C103.261 103.151 103.315 102.771 103.285 102.393C103.255 102.015 103.142 101.648 102.953 101.318C99.0371 93.9223 95.0052 86.5549 91.0023 79.1588C88.3626 74.2952 85.665 69.3453 82.8224 64.1364V64.1076ZM111.017 28.4796C111.017 24.911 111.017 21.6303 111.017 18.3495C111.017 16.3638 110.118 15.4716 108.464 15.7306C106.313 15.9592 104.199 16.4522 102.17 17.1983C97.2677 18.9826 92.5686 21.6303 86.7383 20.0762V29.9473C86.7383 32.451 87.2604 33.1705 89.784 32.8252C92.2755 32.4676 94.7181 31.8304 97.0646 30.9258C101.561 29.4005 105.854 27.4436 111.017 28.4796Z" fill="#004D43"/>
<path d="M170.683 173.179C170.683 170.876 170.683 168.574 170.683 166.272C170.759 165.802 170.667 165.321 170.424 164.911C170.18 164.501 169.8 164.189 169.349 164.027C166.785 162.941 164.716 160.954 163.539 158.447C162.361 155.94 162.158 153.09 162.968 150.444C163.868 146.411 165.364 142.532 167.406 138.932C170.974 133.176 176.717 133.176 180.633 138.932C183.589 143.171 185.242 148.169 185.39 153.321C185.552 155.568 184.994 157.807 183.795 159.719C182.597 161.632 180.82 163.12 178.718 163.97C178.259 164.109 177.864 164.405 177.604 164.805C177.344 165.205 177.235 165.684 177.297 166.157C177.297 170.704 177.297 175.251 177.297 179.769C177.297 182.647 176.166 184.028 174.048 184C171.931 183.971 170.683 182.359 170.683 179.769C170.683 177.179 170.683 175.481 170.683 173.179ZM174.077 140.716C170.871 144.622 169.21 149.554 169.407 154.588C169.407 155.624 170.829 157.466 171.583 157.466C173.903 157.466 176.485 158.876 178.573 156.775C178.913 156.409 179.127 155.946 179.182 155.451C179.444 150.072 177.617 144.799 174.077 140.716Z" fill="#004D43"/>
<path d="M98.2539 168.862C98.2539 168.085 98.2539 167.337 98.2539 166.56C98.5062 165.446 98.3848 164.281 97.9084 163.242C97.4319 162.203 96.6263 161.347 95.6143 160.804C94.3545 160.002 93.3486 158.864 92.7123 157.519C92.076 156.175 91.8351 154.68 92.0175 153.206C92.1494 148.919 93.5076 144.757 95.9334 141.206C99.0951 136.601 103.765 136.572 106.985 141.206C109.37 144.598 110.747 148.586 110.959 152.717C111.104 154.463 110.727 156.214 109.876 157.749C109.025 159.284 107.737 160.537 106.173 161.351C105.677 161.58 105.269 161.961 105.007 162.437C104.746 162.914 104.646 163.461 104.722 163.998C104.722 167.279 104.722 170.589 104.722 173.869C104.722 176.201 103.533 177.409 101.474 177.352C99.4142 177.294 98.2829 176.085 98.2539 173.783C98.2249 172.085 98.2539 170.474 98.2539 168.862ZM101.561 144.371C99.6707 147.098 98.6592 150.329 98.66 153.638C98.66 156.027 100.574 155.509 102.054 155.595C103.533 155.681 104.374 155.106 104.403 153.638C104.393 150.339 103.404 147.117 101.561 144.371Z" fill="#004D43"/>
<path d="M165.52 30.7243C165.52 29.0999 165.846 27.4917 166.481 25.9941C167.115 24.4966 168.044 23.1397 169.214 22.0032C170.384 20.8667 171.771 19.9733 173.293 19.3756C174.816 18.7778 176.443 18.4877 178.08 18.5222C181.358 18.5524 184.492 19.8616 186.805 22.1666C189.117 24.4717 190.422 27.5872 190.437 30.8394C190.309 34.1352 188.899 37.2536 186.503 39.5397C184.107 41.8258 180.911 43.1016 177.587 43.0992C175.972 43.0843 174.377 42.7512 172.893 42.119C171.409 41.4869 170.067 40.5684 168.944 39.4169C167.821 38.2654 166.94 36.9039 166.352 35.4116C165.765 33.9193 165.482 32.326 165.52 30.7243ZM177.79 36.6527C178.564 36.6668 179.333 36.5205 180.047 36.2233C180.761 35.9261 181.404 35.4845 181.937 34.9267C182.469 34.3688 182.878 33.707 183.138 32.9834C183.398 32.2598 183.503 31.4904 183.446 30.7243C183.412 29.5879 183.038 28.4871 182.374 27.5608C181.709 26.6346 180.783 25.9244 179.712 25.5198C178.641 25.1152 177.473 25.0343 176.356 25.2874C175.239 25.5405 174.222 26.1162 173.435 26.9419C172.647 27.7676 172.123 28.8063 171.93 29.927C171.736 31.0476 171.882 32.2 172.347 33.2388C172.813 34.2775 173.579 35.1561 174.548 35.7637C175.516 36.3713 176.644 36.6806 177.79 36.6527Z" fill="#004D43"/>
<path d="M21.4734 27.3572C23.6115 24.7643 26.4636 22.8445 29.6822 21.8317C30.0961 21.6362 30.5467 21.5289 31.0049 21.5169C31.4632 21.5048 31.9189 21.5883 32.3426 21.7619C32.7663 21.9355 33.1486 22.1953 33.4648 22.5246C33.781 22.8538 34.024 23.2453 34.1783 23.6735C34.3542 24.1002 34.4349 24.5597 34.415 25.0202C34.395 25.4808 34.2748 25.9317 34.0626 26.3418C33.8504 26.7519 33.5512 27.1116 33.1856 27.3962C32.8201 27.6808 32.3967 27.8835 31.9447 27.9903C29.2436 29.0252 26.9397 30.8779 25.3602 33.2856C24.9051 34.0454 24.2521 34.6696 23.4698 35.0926C22.6875 35.5155 21.8049 35.7216 20.9146 35.6892C20.0243 35.6569 19.1592 35.3872 18.4102 34.9085C17.6613 34.4299 17.0561 33.7599 16.6583 32.9691C15.3193 30.7696 13.2771 29.0778 10.8569 28.163C8.50739 27.2997 7.46315 25.5154 8.15931 23.7023C8.34752 23.2502 8.63194 22.8438 8.99312 22.5109C9.3543 22.178 9.7837 21.9264 10.252 21.7733C10.7202 21.6203 11.2163 21.5694 11.7062 21.6242C12.1961 21.679 12.6683 21.8381 13.0904 22.0907C15.9621 23.5872 18.6017 25.5442 21.4734 27.3572Z" fill="#004D43"/>
<path d="M125.665 60.539C128.566 58.6972 131.089 56.9417 133.816 55.3876C134.247 55.1285 134.729 54.9637 135.229 54.9041C135.729 54.8446 136.236 54.8917 136.717 55.0423C137.79 55.5315 139.124 56.5388 139.298 57.5173C139.336 58.1406 139.217 58.7634 138.954 59.3306C138.691 59.8978 138.291 60.3919 137.79 60.7693C134.645 62.1689 131.925 64.3618 129.9 67.1293C129.405 67.7766 128.751 68.2869 128 68.6115C127.249 68.9361 126.427 69.064 125.612 68.9832C124.797 68.9023 124.016 68.6153 123.345 68.1497C122.674 67.684 122.135 67.0552 121.778 66.3235C120.411 64.0191 118.278 62.2588 115.745 61.3448C113.453 60.4815 112.438 58.8123 113.076 57.0568C113.238 56.5726 113.507 56.1307 113.864 55.7638C114.221 55.397 114.657 55.1146 115.139 54.9376C115.621 54.7607 116.137 54.6938 116.648 54.7418C117.16 54.7898 117.654 54.9515 118.094 55.215C119.653 55.8491 121.133 56.6603 122.503 57.6324C123.629 58.5221 124.685 59.4937 125.665 60.539Z" fill="#004D43"/>
<path d="M40.9948 39.0414C43.6924 37.3434 46.4481 35.5304 49.3487 34.0626C49.7534 33.7938 50.2146 33.6205 50.6972 33.5559C51.1798 33.4913 51.6709 33.5372 52.1329 33.6899C52.5949 33.8427 53.0155 34.0984 53.3625 34.4373C53.7095 34.7763 53.9737 35.1896 54.1348 35.6455C54.889 37.5161 54.1348 39.1277 51.7853 40.0774C49.1392 41.0988 46.8926 42.9344 45.3748 45.3151C44.9065 46.0805 44.2419 46.7091 43.449 47.1367C42.656 47.5644 41.7629 47.7758 40.8608 47.7495C39.9587 47.7232 39.0797 47.46 38.3134 46.9869C37.5471 46.5137 36.921 45.8475 36.4988 45.0561C35.2721 42.7513 33.1927 41.0079 30.6975 40.1925C28.2609 39.2428 27.3037 37.6024 28.0289 35.7606C28.1978 35.2719 28.4797 34.8293 28.852 34.4681C29.2242 34.1069 29.6766 33.8372 30.1728 33.6805C30.669 33.5239 31.1952 33.4847 31.7094 33.566C32.2237 33.6474 32.7115 33.847 33.134 34.149C35.9767 35.6167 38.5583 37.5161 40.9948 39.0414Z" fill="#004D43"/>
<path d="M202.301 34.0914C201.314 34.0914 200.328 34.0914 199.4 34.0914C198.961 34.1208 198.52 34.057 198.107 33.9043C197.695 33.7517 197.32 33.5136 197.007 33.206C196.694 32.8984 196.451 32.5283 196.293 32.1203C196.136 31.7122 196.068 31.2756 196.093 30.8394C196.04 30.416 196.083 29.9862 196.218 29.5812C196.353 29.1761 196.577 28.8059 196.875 28.4974C197.172 28.1889 197.534 27.9498 197.936 27.7974C198.337 27.645 198.768 27.5831 199.197 27.6162C201.371 27.5011 203.55 27.5011 205.723 27.6162C206.141 27.5779 206.562 27.6299 206.957 27.7684C207.352 27.9069 207.712 28.1288 208.013 28.4187C208.313 28.7086 208.547 29.0597 208.697 29.4478C208.848 29.8359 208.912 30.2518 208.885 30.6668C208.89 31.5107 208.577 32.3259 208.009 32.9537C207.44 33.5815 206.657 33.9768 205.811 34.0626C204.69 34.1203 203.567 34.1203 202.446 34.0626L202.301 34.0914Z" fill="#004D43"/>
<path d="M153.076 34.0914C152.032 34.0914 150.959 34.0914 149.915 34.0914C149.502 34.1171 149.088 34.0549 148.701 33.9088C148.314 33.7627 147.964 33.5363 147.672 33.2446C147.381 32.9529 147.156 32.6028 147.013 32.2177C146.869 31.8327 146.81 31.4216 146.84 31.0121C146.768 30.5954 146.788 30.1679 146.901 29.7601C147.014 29.3523 147.216 28.9742 147.493 28.6528C147.77 28.3313 148.115 28.0743 148.504 27.9001C148.892 27.7259 149.314 27.6388 149.741 27.645C151.992 27.5154 154.248 27.5154 156.499 27.645C156.906 27.643 157.308 27.7258 157.681 27.8881C158.053 28.0503 158.387 28.2885 158.66 28.587C158.934 28.8855 159.141 29.2377 159.268 29.6208C159.396 30.0039 159.441 30.4093 159.4 30.8107C159.428 31.2317 159.368 31.6538 159.225 32.051C159.081 32.4482 158.857 32.8119 158.566 33.1195C158.275 33.4271 157.923 33.6721 157.533 33.8393C157.142 34.0065 156.721 34.0923 156.296 34.0914C155.224 34.1432 154.149 34.1432 153.076 34.0914Z" fill="#004D43"/>
<path d="M180.836 55.0711C180.836 56.1935 180.836 57.3158 180.836 58.4382C180.837 58.8363 180.755 59.2303 180.595 59.5954C180.435 59.9605 180.2 60.2886 179.906 60.5591C179.611 60.8296 179.264 61.0365 178.884 61.1668C178.505 61.2971 178.103 61.3479 177.703 61.3161C177.279 61.3719 176.848 61.3342 176.441 61.2054C176.033 61.0767 175.66 60.8602 175.346 60.5715C175.033 60.2827 174.788 59.9288 174.629 59.5352C174.47 59.1415 174.4 58.7178 174.425 58.2943C174.309 56.1278 174.309 53.9568 174.425 51.7903C174.436 51.3833 174.53 50.9826 174.701 50.6123C174.871 50.2421 175.116 49.9099 175.419 49.6357C175.723 49.3616 176.079 49.1511 176.466 49.0169C176.854 48.8827 177.265 48.8276 177.674 48.8549C178.099 48.8148 178.528 48.8685 178.93 49.012C179.332 49.1555 179.697 49.3853 179.999 49.6849C180.301 49.9846 180.533 50.3468 180.677 50.7455C180.822 51.1443 180.876 51.5699 180.836 51.9918C180.836 53.0566 180.836 54.0926 180.836 55.1286V55.0711Z" fill="#004D43"/>
<path d="M180.836 6.23366C180.836 7.41359 180.836 8.6223 180.836 9.80222C180.837 10.1977 180.756 10.5892 180.597 10.9521C180.439 11.3151 180.207 11.6418 179.916 11.9119C179.624 12.1819 179.28 12.3895 178.905 12.5217C178.529 12.6538 178.13 12.7078 177.732 12.6801C177.321 12.7336 176.903 12.699 176.506 12.5785C176.109 12.4581 175.743 12.2546 175.433 11.9818C175.122 11.709 174.874 11.3733 174.705 10.9973C174.536 10.6213 174.451 10.2138 174.454 9.80222C174.454 7.49993 174.454 5.19763 174.454 2.89534C174.452 2.48923 174.536 2.0872 174.701 1.71568C174.867 1.34416 175.109 1.01155 175.413 0.739724C175.718 0.467899 176.076 0.263011 176.466 0.138529C176.855 0.0140474 177.267 -0.0272096 177.674 0.0174702C178.079 -0.0228765 178.487 0.0216179 178.873 0.148066C179.259 0.274515 179.615 0.480092 179.915 0.751459C180.216 1.02283 180.456 1.35392 180.62 1.72326C180.783 2.0926 180.867 2.49193 180.865 2.89534C180.865 4.01771 180.865 5.14008 180.865 6.26244L180.836 6.23366Z" fill="#004D43"/>
<path d="M157.717 53.4595C157.079 52.9415 155.919 52.4234 155.542 51.5601C155.311 51.0536 155.192 50.5042 155.192 49.9485C155.192 49.3927 155.311 48.8433 155.542 48.3369C157.118 46.4178 158.887 44.6629 160.821 43.0992C161.065 42.8653 161.356 42.6845 161.674 42.5685C161.993 42.4525 162.332 42.4038 162.671 42.4254C163.01 42.4471 163.34 42.5387 163.641 42.6944C163.942 42.85 164.206 43.0663 164.418 43.3294C165.143 44.2215 165.897 46.2072 165.462 46.7253C163.515 48.9597 161.422 51.065 159.197 53.0278C158.965 53.258 158.53 53.258 157.717 53.4595Z" fill="#004D43"/>
<path d="M200.589 10.6368C200.589 13.3708 194.788 19.0402 192.845 18.6373C192.291 18.5126 191.769 18.2774 191.31 17.9459C190.851 17.6143 190.465 17.1935 190.176 16.7091C190.012 16.2343 189.958 15.729 190.019 15.2307C190.079 14.7325 190.252 14.2541 190.524 13.8312C191.938 12.0155 193.575 10.3817 195.397 8.96764C195.881 8.66765 196.425 8.47615 196.991 8.40656C197.557 8.33697 198.132 8.39095 198.675 8.56474C199.603 8.91008 200.183 10.1476 200.589 10.6368Z" fill="#004D43"/>
<path d="M200.734 50.4665C200.183 51.1572 199.632 52.3659 198.704 52.7976C198.217 53.018 197.684 53.1199 197.149 53.0949C196.614 53.0699 196.093 52.9186 195.629 52.6537C193.718 51.1171 191.959 49.4016 190.379 47.5311C189.906 46.9952 189.664 46.2956 189.708 45.5843C189.751 44.8731 190.076 44.2075 190.611 43.7323C191.568 42.6675 192.99 41.948 194.15 42.8977C196.274 44.7679 198.288 46.7569 200.183 48.8549C200.531 49.1139 200.502 49.6319 200.734 50.4665Z" fill="#004D43"/>
<path d="M165.752 15.3565C165.803 15.9446 165.685 16.5349 165.413 17.0596C165.14 17.5843 164.724 18.0221 164.212 18.3227C163.7 18.6233 163.113 18.7744 162.518 18.7588C161.924 18.7432 161.345 18.5614 160.85 18.2344C158.892 16.6356 157.103 14.842 155.513 12.8815C155.291 12.606 155.126 12.2897 155.028 11.9508C154.93 11.6119 154.9 11.2571 154.941 10.9068C154.981 10.5565 155.091 10.2175 155.264 9.90944C155.437 9.60135 155.669 9.33018 155.948 9.11153C156.155 8.82493 156.418 8.58223 156.721 8.39769C157.023 8.21314 157.36 8.09046 157.712 8.03684C158.063 7.98323 158.421 7.99976 158.766 8.08547C159.111 8.17118 159.435 8.32434 159.719 8.53596C161.726 10.2001 163.615 11.9981 165.375 13.9176C165.61 14.3623 165.739 14.8546 165.752 15.3565Z" fill="#004D43"/>
</g>
</svg>
